<svg width="135" height="23" viewBox="0 0 135 23" fill="none" xmlns="http://www.w3.org/2000/svg">
<path d="M7.75944 22.364C6.67677 22.364 5.6361 22.196 4.63744 21.86C3.6481 21.5147 2.7801 21.0247 2.03344 20.39C1.28677 19.746 0.750104 18.976 0.423438 18.08L3.62944 16.904C3.7601 17.2773 4.0261 17.618 4.42744 17.926C4.82877 18.234 5.31877 18.4813 5.89744 18.668C6.4761 18.8547 7.09677 18.948 7.75944 18.948C8.44077 18.948 9.07544 18.8453 9.66344 18.64C10.2608 18.4253 10.7414 18.1313 11.1054 17.758C11.4694 17.3753 11.6514 16.932 11.6514 16.428C11.6514 15.9147 11.4601 15.4947 11.0774 15.168C10.6948 14.832 10.2048 14.566 9.60744 14.37C9.0101 14.174 8.3941 14.0247 7.75944 13.922C6.36877 13.7073 5.12277 13.376 4.02144 12.928C2.9201 12.48 2.04744 11.8593 1.40344 11.066C0.768771 10.2727 0.451438 9.246 0.451438 7.986C0.451438 6.80067 0.792104 5.76467 1.47344 4.878C2.15477 3.99133 3.05077 3.30067 4.16144 2.806C5.2721 2.31133 6.47144 2.064 7.75944 2.064C8.83277 2.064 9.86877 2.232 10.8674 2.568C11.8661 2.904 12.7388 3.394 13.4854 4.038C14.2414 4.682 14.7828 5.45667 15.1094 6.362L11.8894 7.524C11.7588 7.15067 11.4928 6.81 11.0914 6.502C10.6901 6.194 10.2001 5.95133 9.62144 5.774C9.04277 5.58733 8.4221 5.494 7.75944 5.494C7.09677 5.48467 6.46677 5.592 5.86944 5.816C5.28144 6.03067 4.80077 6.32467 4.42744 6.698C4.0541 7.07133 3.86744 7.50067 3.86744 7.986C3.86744 8.61133 4.0401 9.08267 4.38544 9.4C4.7401 9.71733 5.21144 9.95067 5.79944 10.1C6.38744 10.24 7.04077 10.3707 7.75944 10.492C9.0661 10.6973 10.2748 11.0427 11.3854 11.528C12.4961 12.0133 13.3874 12.662 14.0594 13.474C14.7314 14.2767 15.0674 15.2613 15.0674 16.428C15.0674 17.6133 14.7314 18.654 14.0594 19.55C13.3874 20.4367 12.4961 21.1273 11.3854 21.622C10.2748 22.1167 9.0661 22.364 7.75944 22.364ZM23.8986 22.364C22.6106 22.364 21.4346 22.0327 20.3706 21.37C19.3159 20.7073 18.4713 19.8207 17.8366 18.71C17.2113 17.59 16.8986 16.3533 16.8986 15C16.8986 13.9733 17.0806 13.0167 17.4446 12.13C17.8086 11.234 18.3079 10.45 18.9426 9.778C19.5866 9.09667 20.3333 8.56467 21.1826 8.182C22.0319 7.79933 22.9373 7.608 23.8986 7.608C25.1866 7.608 26.3579 7.93933 27.4126 8.602C28.4766 9.26467 29.3213 10.156 29.9466 11.276C30.5813 12.396 30.8986 13.6373 30.8986 15C30.8986 16.0173 30.7166 16.9693 30.3526 17.856C29.9886 18.7427 29.4846 19.5267 28.8406 20.208C28.2059 20.88 27.4639 21.4073 26.6146 21.79C25.7746 22.1727 24.8693 22.364 23.8986 22.364ZM23.8986 18.948C24.5799 18.948 25.1913 18.766 25.7326 18.402C26.2739 18.038 26.6986 17.5573 27.0066 16.96C27.3239 16.3627 27.4826 15.7093 27.4826 15C27.4826 14.272 27.3193 13.6093 26.9926 13.012C26.6753 12.4053 26.2413 11.9247 25.6906 11.57C25.1493 11.206 24.5519 11.024 23.8986 11.024C23.2266 11.024 22.6199 11.206 22.0786 11.57C21.5373 11.934 21.1079 12.4193 20.7906 13.026C20.4733 13.6327 20.3146 14.2907 20.3146 15C20.3146 15.7373 20.4779 16.4047 20.8046 17.002C21.1313 17.5993 21.5653 18.0753 22.1066 18.43C22.6573 18.7753 23.2546 18.948 23.8986 18.948ZM37.3686 5.06V8H41.1906V11.416H37.3686V22H33.9526V11.416H32.4266V8H33.9526V5.06C33.9526 4.25733 34.1486 3.52467 34.5406 2.862C34.9419 2.19 35.4786 1.658 36.1506 1.266C36.8226 0.864666 37.5646 0.663999 38.3766 0.663999C38.9646 0.663999 39.5479 0.785333 40.1266 1.028C40.7052 1.27067 41.2186 1.644 41.6666 2.148L39.2026 4.556C39.1186 4.39733 38.9972 4.28067 38.8386 4.206C38.6892 4.122 38.5352 4.08 38.3766 4.08C38.1059 4.08 37.8679 4.178 37.6626 4.374C37.4666 4.56067 37.3686 4.78933 37.3686 5.06ZM51.4653 11.416H48.7493V22H45.3333V11.416H43.2613V8H45.3333V3.604H48.7493V8H51.4653V11.416ZM53.9964 22V2.4H57.4124V18.584H65.5744V22H53.9964ZM73.6642 22.364C72.3762 22.364 71.2002 22.0327 70.1362 21.37C69.0816 20.7073 68.2369 19.8207 67.6022 18.71C66.9769 17.59 66.6642 16.3533 66.6642 15C66.6642 13.9733 66.8462 13.0167 67.2102 12.13C67.5742 11.234 68.0736 10.45 68.7082 9.778C69.3522 9.09667 70.0989 8.56467 70.9482 8.182C71.7976 7.79933 72.7029 7.608 73.6642 7.608C74.9522 7.608 76.1236 7.93933 77.1782 8.602C78.2422 9.26467 79.0869 10.156 79.7122 11.276C80.3469 12.396 80.6642 13.6373 80.6642 15C80.6642 16.0173 80.4822 16.9693 80.1182 17.856C79.7542 18.7427 79.2502 19.5267 78.6062 20.208C77.9716 20.88 77.2296 21.4073 76.3802 21.79C75.5402 22.1727 74.6349 22.364 73.6642 22.364ZM73.6642 18.948C74.3456 18.948 74.9569 18.766 75.4982 18.402C76.0396 18.038 76.4642 17.5573 76.7722 16.96C77.0896 16.3627 77.2482 15.7093 77.2482 15C77.2482 14.272 77.0849 13.6093 76.7582 13.012C76.4409 12.4053 76.0069 11.9247 75.4562 11.57C74.9149 11.206 74.3176 11.024 73.6642 11.024C72.9922 11.024 72.3856 11.206 71.8442 11.57C71.3029 11.934 70.8736 12.4193 70.5562 13.026C70.2389 13.6327 70.0802 14.2907 70.0802 15C70.0802 15.7373 70.2436 16.4047 70.5702 17.002C70.8969 17.5993 71.3309 18.0753 71.8722 18.43C72.4229 18.7753 73.0202 18.948 73.6642 18.948ZM91.5788 17.786L94.6588 19.452C94.0148 20.3293 93.2074 21.034 92.2368 21.566C91.2661 22.098 90.2068 22.364 89.0588 22.364C87.7708 22.364 86.5948 22.0327 85.5308 21.37C84.4761 20.7073 83.6314 19.8207 82.9968 18.71C82.3714 17.59 82.0588 16.3533 82.0588 15C82.0588 13.9733 82.2408 13.0167 82.6048 12.13C82.9688 11.234 83.4681 10.45 84.1028 9.778C84.7468 9.09667 85.4934 8.56467 86.3428 8.182C87.1921 7.79933 88.0974 7.608 89.0588 7.608C90.2068 7.608 91.2661 7.874 92.2368 8.406C93.2074 8.938 94.0148 9.652 94.6588 10.548L91.5788 12.2C91.2521 11.8267 90.8648 11.5373 90.4168 11.332C89.9781 11.1267 89.5254 11.024 89.0588 11.024C88.3868 11.024 87.7801 11.2107 87.2388 11.584C86.6974 11.948 86.2681 12.4333 85.9508 13.04C85.6334 13.6373 85.4748 14.2907 85.4748 15C85.4748 15.7 85.6334 16.3533 85.9508 16.96C86.2681 17.5573 86.6974 18.038 87.2388 18.402C87.7801 18.766 88.3868 18.948 89.0588 18.948C89.5441 18.948 90.0061 18.8453 90.4448 18.64C90.8834 18.4253 91.2614 18.1407 91.5788 17.786ZM109.237 22H105.303L102.111 16.498L100.151 18.836V22H96.7347V0.999998H100.151V13.53L104.785 8H109.251L104.449 13.726L109.237 22ZM116.703 22.364C115.415 22.364 114.239 22.0327 113.175 21.37C112.121 20.7073 111.276 19.816 110.641 18.696C110.016 17.576 109.703 16.3393 109.703 14.986C109.703 13.9687 109.885 13.0167 110.249 12.13C110.613 11.234 111.113 10.45 111.747 9.778C112.391 9.09667 113.138 8.56467 113.987 8.182C114.837 7.79933 115.742 7.608 116.703 7.608C117.795 7.608 118.794 7.84133 119.699 8.308C120.614 8.76533 121.389 9.39533 122.023 10.198C122.658 11.0007 123.12 11.9153 123.409 12.942C123.699 13.9687 123.764 15.042 123.605 16.162H113.371C113.502 16.6847 113.717 17.156 114.015 17.576C114.314 17.9867 114.692 18.318 115.149 18.57C115.607 18.8127 116.125 18.9387 116.703 18.948C117.301 18.9573 117.842 18.8173 118.327 18.528C118.822 18.2293 119.233 17.828 119.559 17.324L123.045 18.136C122.476 19.3773 121.627 20.3947 120.497 21.188C119.368 21.972 118.103 22.364 116.703 22.364ZM113.259 13.6H120.147C120.045 13.04 119.825 12.536 119.489 12.088C119.163 11.6307 118.757 11.2667 118.271 10.996C117.786 10.7253 117.263 10.59 116.703 10.59C116.143 10.59 115.625 10.7253 115.149 10.996C114.673 11.2573 114.267 11.6167 113.931 12.074C113.605 12.522 113.381 13.0307 113.259 13.6ZM125.897 22L125.883 8H129.299L129.313 9.246C129.789 8.742 130.358 8.34533 131.021 8.056C131.684 7.75733 132.398 7.608 133.163 7.608C133.676 7.608 134.19 7.68267 134.703 7.832L133.359 11.276C133.004 11.136 132.65 11.066 132.295 11.066C131.744 11.066 131.24 11.2013 130.783 11.472C130.335 11.7333 129.976 12.0927 129.705 12.55C129.444 12.998 129.313 13.4973 129.313 14.048V22H125.897Z" fill="url(#paint0_linear_99_2796)"/>
<defs>
<linearGradient id="paint0_linear_99_2796" x1="-32" y1="14.5" x2="166" y2="14.5" gradientUnits="userSpaceOnUse">
<stop stop-color="#2B2A7B"/>
<stop offset="1" stop-color="#0071A5"/>
</linearGradient>
</defs>
</svg>
